# xmcd
#
# Track frame offsets: 
#        150
#        11137
#        26393
#        38456
#        54409
#        77385
#        99444
#        113400
#        128543
#        146931
#
# Disc length: 2308 seconds
#
# Revision: 1
# Processed by: cddbd v1.5.2PL0 Copyright (c) Steve Scherf et al.
# Submitted via: ExactAudioCopyFreeDBPlugin 1.0
#
DISCID=6b09020a
DTITLE=Allen Stone - Allen Stone
DYEAR=2012
DGENRE=Soul
TTITLE0=Sleep
TTITLE1=Celebrate Tonight
TTITLE2=What I've Seen
TTITLE3=Say So
TTITLE4=The Wind
TTITLE5=Satisfaction
TTITLE6=Contact High
TTITLE7=Nothing To Prove
TTITLE8=Your Eyes
TTITLE9=Unaware
EXTD=
EXTT0=
EXTT1=
EXTT2=
EXTT3=
EXTT4=
EXTT5=
EXTT6=
EXTT7=
EXTT8=
EXTT9=
PLAYORDER=
